<?xml version="1.0" encoding="UTF-8" standalone="no"?>
<!-- Generator: Adobe Illustrator 21.1.0, SVG Export Plug-In . SVG Version: 6.00 Build 0)  -->

<svg
   xmlns:dc="http://purl.org/dc/elements/1.1/"
   xmlns:cc="http://creativecommons.org/ns#"
   xmlns:rdf="http://www.w3.org/1999/02/22-rdf-syntax-ns#"
   xmlns:svg="http://www.w3.org/2000/svg"
   xmlns="http://www.w3.org/2000/svg"
   xmlns:sodipodi="http://sodipodi.sourceforge.net/DTD/sodipodi-0.dtd"
   xmlns:inkscape="http://www.inkscape.org/namespaces/inkscape"
   version="1.1"
   id="Calque_1"
   x="0px"
   y="0px"
   viewBox="0 0 160 160"
   enable-background="new 0 0 474.8 160"
   xml:space="preserve"
   sodipodi:docname="fpms.svg"
   width="160"
   height="160"
   inkscape:version="0.92.4 (5da689c313, 2019-01-14)"><metadata
   id="metadata17"><rdf:RDF><cc:Work
       rdf:about=""><dc:format>image/svg+xml</dc:format><dc:type
         rdf:resource="http://purl.org/dc/dcmitype/StillImage" /><dc:title /></cc:Work></rdf:RDF></metadata><defs
   id="defs15" /><sodipodi:namedview
   pagecolor="#ffffff"
   bordercolor="#666666"
   borderopacity="1"
   objecttolerance="10"
   gridtolerance="10"
   guidetolerance="10"
   inkscape:pageopacity="0"
   inkscape:pageshadow="2"
   inkscape:window-width="1920"
   inkscape:window-height="1051"
   id="namedview13"
   showgrid="false"
   inkscape:zoom="4"
   inkscape:cx="5.8497817"
   inkscape:cy="77.827516"
   inkscape:window-x="1791"
   inkscape:window-y="-9"
   inkscape:window-maximized="1"
   inkscape:current-layer="Calque_1"><sodipodi:guide
     position="17.2,100.5"
     orientation="-39.8,59.9"
     id="guide827"
     inkscape:locked="false" /><sodipodi:guide
     position="78.9,107.3"
     orientation="35.6,-63.2"
     id="guide831"
     inkscape:locked="false" /><sodipodi:guide
     position="15.7,71.7"
     orientation="-28.8,1.5"
     id="guide833"
     inkscape:locked="false" /><sodipodi:guide
     position="0,16.4"
     orientation="-666.22149,47.518828"
     id="guide837"
     inkscape:locked="false" /><sodipodi:guide
     position="-259.17346,-83.13378"
     orientation="-243.13378,335.17346"
     id="guide848"
     inkscape:locked="false" /><sodipodi:guide
     position="76,160"
     orientation="76.3,4.3"
     id="guide850"
     inkscape:locked="false" /><sodipodi:guide
     position="80.3,83.7"
     orientation="166.83378,-339.47346"
     id="guide852"
     inkscape:locked="false" /></sodipodi:namedview>
<path
   style="fill:#ffffff;stroke:none;stroke-width:1px;stroke-linecap:butt;stroke-linejoin:miter;stroke-opacity:1;fill-opacity:1"
   d="M 0,143.6 6.6544886,50.303017 76,0 l 67.6,44.6 10.6,64.9 -63.6,22.6 1.4,23.9 -13.8,4 z"
   id="path858"
   inkscape:connector-curvature="0" /><g
   id="g10">
	<polyline
   points="78.9,52.7 80.3,76.3 154.2,109.5 143.6,44.6 76,0 77.1,19.7 134.6,54.6 139,83.5 78.9,52.7  "
   id="polyline2"
   style="fill:#a5bee0" />
	<path
   d="M 17.2,59.5 77.1,19.7 134.6,54.6 108,67.7 78.9,52.7 15.7,88.3 17.2,59.5 M 0,143.6 13.5,138 15,109.5 80.3,76.3 154.2,109.5 90.6,132.1 92,156 78.2,160 Z"
   id="path4"
   inkscape:connector-curvature="0"
   style="fill:#024887"
   sodipodi:nodetypes="cccccccccccccccc" />
	<path
   d="m 446.6,39.2 v -19 h -9.4 v 48.3 h 9.4 V 46.9 H 464 v 21.6 h 9.4 V 20.1 H 464 v 19 H 446.6 M 429.1,21.7 c -3.3,-1.8 -7,-2.8 -10.8,-2.8 -14.2,0 -23.9,12.1 -23.9,25.8 0,13.3 10.1,25.1 23.7,25.1 3.9,0 7.4,-1.2 11,-2.9 V 55.7 c -2.6,3 -6.7,5.1 -10.7,5.1 -8.8,0 -14.2,-8.1 -14.2,-16.3 0,-8.3 5.2,-16.7 14.2,-16.7 4,0 8,1.9 10.6,5.1 V 21.7 Z m -39.7,6.6 v -8.2 h -25 v 48.3 h 25 v -8.2 h -15.6 v -13 h 15 V 39 h -15 V 28.3 Z m -39.4,0 h 9.7 v -8.2 h -28.9 v 8.2 h 9.7 v 40.1 h 9.4 V 28.3 Z m -45.8,18 v 22.2 h 9.4 V 46.3 l 15.3,-26.2 h -11 l -9.2,16.8 -8.5,-16.8 h -11 z M 280.9,20.1 h -9.4 v 48.3 h 22.8 V 60.2 H 281 V 20.1 Z m -40,8.1 c 8.3,0 14.2,7.9 14.2,15.7 0,7.3 -6.2,16.6 -14.2,16.6 -8,0 -14.2,-9.3 -14.2,-16.6 0.1,-7.9 6,-15.7 14.2,-15.7 z m 0,41.6 c 14.1,0 23.9,-11.7 23.9,-25.5 0,-13.5 -9.8,-25.4 -23.9,-25.4 -14.1,0 -23.9,11.9 -23.9,25.4 0,13.8 9.8,25.5 23.9,25.5 z M 193.3,28 h 1.7 c 5.3,0 8.8,0.9 8.8,7.1 0,6.3 -3,7.5 -8.6,7.5 h -1.9 z m 0,22.4 h 4.7 c 9.9,0 15.5,-5 15.5,-15.3 0,-11 -6.6,-15 -16.7,-15 H 184 v 48.3 h 9.4 v -18 z"
   id="path6"
   inkscape:connector-curvature="0"
   style="fill:#024887" />
	<path
   d="m 472.6,95.1 c -4.2,-4.5 -12.6,-7.4 -18.7,-7.4 -11.5,0 -19.9,8.9 -19.9,19.9 0,10.3 6.4,14.6 15.2,18.1 5.3,2 11.9,4 11.9,10.8 0,5.1 -3.4,9.6 -8.8,9.6 -5.7,0 -10.5,-4.6 -12.3,-9.7 l -8.6,8.2 c 4.7,7.7 11.6,12.9 21,12.9 14,0 22.5,-9.4 22.5,-22.7 0,-22.3 -27.1,-17.6 -27.1,-28.8 0,-4.3 4.1,-7.5 8.3,-7.5 4.4,0 7.7,2.1 10.2,5.5 l 6.3,-8.9 M 354.7,155.8 H 368 v -45.1 h 0.2 l 36,46.4 h 9.6 V 89.4 H 400.5 V 134 h -0.2 l -36,-46.4 h -9.6 z m -52.1,-55.4 c 11.7,0 20,10.8 20,21.6 0,10 -8.7,22.8 -20,22.8 -11.3,0 -20,-12.8 -20,-22.8 0,-10.7 8.3,-21.6 20,-21.6 z m 0,57.1 c 19.9,0 33.8,-16 33.8,-35 0,-18.6 -13.9,-34.9 -33.8,-34.9 -19.9,0 -33.8,16.3 -33.8,34.9 0,19 13.8,35 33.8,35 z m -60.9,-1.7 h 13.4 L 244.9,87.7 h -9.6 l -16.1,43.7 -16.9,-43.7 h -9.4 l -11.5,68.1 h 13.4 l 6.1,-41.2 h 0.2 l 15,42.1 h 4.6 l 15.5,-42.1 h 0.2 z"
   id="path8"
   inkscape:connector-curvature="0"
   style="fill:#024887" />
</g>
</svg>